<mxfile host="Electron" modified="2024-07-27T08:43:07.413Z" agent="Mozilla/5.0 (Windows NT 10.0; Win64; x64) AppleWebKit/537.36 (KHTML, like Gecko) draw.io/21.6.1 Chrome/112.0.5615.204 Electron/24.6.1 Safari/537.36" etag="nj2VKN0Gbfh73N7qHHrf" version="21.6.1" type="device">
  <diagram name="Page-1" id="sOL_2JgVbMNOfDhCaAAe">
    <mxGraphModel dx="1720" dy="828" grid="1" gridSize="10" guides="1" tooltips="1" connect="1" arrows="1" fold="1" page="1" pageScale="1" pageWidth="3300" pageHeight="4681" math="0" shadow="0">
      <root>
        <mxCell id="0" />
        <mxCell id="1" parent="0" />
        <mxCell id="tdtGNlRz05rMyrhpuSqK-1" value="" style="swimlane;startSize=0;movable=1;resizable=1;rotatable=1;deletable=1;editable=1;locked=0;connectable=1;" vertex="1" parent="1">
          <mxGeometry x="360" y="240" width="500" height="300" as="geometry" />
        </mxCell>
        <mxCell id="tdtGNlRz05rMyrhpuSqK-7" value="Login" style="ellipse;whiteSpace=wrap;html=1;movable=1;resizable=1;rotatable=1;deletable=1;editable=1;locked=0;connectable=1;" vertex="1" parent="tdtGNlRz05rMyrhpuSqK-1">
          <mxGeometry x="30" y="40" width="90" height="40" as="geometry" />
        </mxCell>
        <mxCell id="tdtGNlRz05rMyrhpuSqK-9" value="Download Result" style="ellipse;whiteSpace=wrap;html=1;movable=1;resizable=1;rotatable=1;deletable=1;editable=1;locked=0;connectable=1;" vertex="1" parent="tdtGNlRz05rMyrhpuSqK-1">
          <mxGeometry x="30" y="160" width="90" height="40" as="geometry" />
        </mxCell>
        <mxCell id="tdtGNlRz05rMyrhpuSqK-11" value="Login" style="ellipse;whiteSpace=wrap;html=1;movable=1;resizable=1;rotatable=1;deletable=1;editable=1;locked=0;connectable=1;" vertex="1" parent="tdtGNlRz05rMyrhpuSqK-1">
          <mxGeometry x="380" y="50" width="90" height="40" as="geometry" />
        </mxCell>
        <mxCell id="tdtGNlRz05rMyrhpuSqK-12" value="Upload Result" style="ellipse;whiteSpace=wrap;html=1;movable=1;resizable=1;rotatable=1;deletable=1;editable=1;locked=0;connectable=1;" vertex="1" parent="tdtGNlRz05rMyrhpuSqK-1">
          <mxGeometry x="380" y="130" width="90" height="40" as="geometry" />
        </mxCell>
        <mxCell id="tdtGNlRz05rMyrhpuSqK-17" value="&lt;b&gt;USE CASE DIAGRAM:&lt;br&gt;&lt;br&gt;Exam Result System&lt;/b&gt;" style="text;html=1;strokeColor=none;fillColor=none;align=center;verticalAlign=middle;whiteSpace=wrap;rounded=0;movable=1;resizable=1;rotatable=1;deletable=1;editable=1;locked=0;connectable=1;" vertex="1" parent="tdtGNlRz05rMyrhpuSqK-1">
          <mxGeometry x="170" y="10" width="160" height="30" as="geometry" />
        </mxCell>
        <mxCell id="tdtGNlRz05rMyrhpuSqK-18" value="&amp;lt;&amp;lt;include&amp;gt;&amp;gt;" style="html=1;verticalAlign=bottom;labelBackgroundColor=none;endArrow=open;endFill=0;dashed=1;rounded=0;entryX=1;entryY=0.5;entryDx=0;entryDy=0;movable=1;resizable=1;rotatable=1;deletable=1;editable=1;locked=0;connectable=1;" edge="1" parent="tdtGNlRz05rMyrhpuSqK-1" source="tdtGNlRz05rMyrhpuSqK-12" target="tdtGNlRz05rMyrhpuSqK-19">
          <mxGeometry width="160" relative="1" as="geometry">
            <mxPoint x="200" y="180" as="sourcePoint" />
            <mxPoint x="360" y="180" as="targetPoint" />
          </mxGeometry>
        </mxCell>
        <mxCell id="tdtGNlRz05rMyrhpuSqK-19" value="View Result" style="ellipse;whiteSpace=wrap;html=1;movable=1;resizable=1;rotatable=1;deletable=1;editable=1;locked=0;connectable=1;" vertex="1" parent="tdtGNlRz05rMyrhpuSqK-1">
          <mxGeometry x="30" y="100" width="90" height="40" as="geometry" />
        </mxCell>
        <mxCell id="tdtGNlRz05rMyrhpuSqK-3" value="USER" style="shape=umlActor;verticalLabelPosition=bottom;verticalAlign=top;html=1;outlineConnect=0;" vertex="1" parent="1">
          <mxGeometry x="240" y="330" width="30" height="60" as="geometry" />
        </mxCell>
        <mxCell id="tdtGNlRz05rMyrhpuSqK-6" value="ADMIN" style="shape=umlActor;verticalLabelPosition=bottom;verticalAlign=top;html=1;outlineConnect=0;movable=1;resizable=1;rotatable=1;deletable=1;editable=1;locked=0;connectable=1;" vertex="1" parent="1">
          <mxGeometry x="900" y="320" width="30" height="60" as="geometry" />
        </mxCell>
        <mxCell id="tdtGNlRz05rMyrhpuSqK-13" value="" style="endArrow=none;html=1;rounded=0;entryX=0;entryY=0.5;entryDx=0;entryDy=0;exitX=1;exitY=0.3333333333333333;exitDx=0;exitDy=0;exitPerimeter=0;" edge="1" parent="1" source="tdtGNlRz05rMyrhpuSqK-3" target="tdtGNlRz05rMyrhpuSqK-7">
          <mxGeometry width="50" height="50" relative="1" as="geometry">
            <mxPoint x="210" y="530" as="sourcePoint" />
            <mxPoint x="260" y="480" as="targetPoint" />
          </mxGeometry>
        </mxCell>
        <mxCell id="tdtGNlRz05rMyrhpuSqK-14" value="" style="endArrow=none;html=1;rounded=0;entryX=0;entryY=0.5;entryDx=0;entryDy=0;exitX=1;exitY=0.3333333333333333;exitDx=0;exitDy=0;exitPerimeter=0;" edge="1" parent="1" source="tdtGNlRz05rMyrhpuSqK-3" target="tdtGNlRz05rMyrhpuSqK-9">
          <mxGeometry width="50" height="50" relative="1" as="geometry">
            <mxPoint x="250" y="510" as="sourcePoint" />
            <mxPoint x="300" y="460" as="targetPoint" />
          </mxGeometry>
        </mxCell>
        <mxCell id="tdtGNlRz05rMyrhpuSqK-15" value="" style="endArrow=none;html=1;rounded=0;entryX=1;entryY=0.5;entryDx=0;entryDy=0;exitX=0;exitY=0.3333333333333333;exitDx=0;exitDy=0;exitPerimeter=0;movable=1;resizable=1;rotatable=1;deletable=1;editable=1;locked=0;connectable=1;" edge="1" parent="1" source="tdtGNlRz05rMyrhpuSqK-6" target="tdtGNlRz05rMyrhpuSqK-11">
          <mxGeometry width="50" height="50" relative="1" as="geometry">
            <mxPoint x="940" y="530" as="sourcePoint" />
            <mxPoint x="990" y="480" as="targetPoint" />
          </mxGeometry>
        </mxCell>
        <mxCell id="tdtGNlRz05rMyrhpuSqK-16" value="" style="endArrow=none;html=1;rounded=0;entryX=1;entryY=0.5;entryDx=0;entryDy=0;exitX=0;exitY=0.3333333333333333;exitDx=0;exitDy=0;exitPerimeter=0;movable=1;resizable=1;rotatable=1;deletable=1;editable=1;locked=0;connectable=1;" edge="1" parent="1" source="tdtGNlRz05rMyrhpuSqK-6" target="tdtGNlRz05rMyrhpuSqK-12">
          <mxGeometry width="50" height="50" relative="1" as="geometry">
            <mxPoint x="920" y="600" as="sourcePoint" />
            <mxPoint x="970" y="550" as="targetPoint" />
          </mxGeometry>
        </mxCell>
        <mxCell id="tdtGNlRz05rMyrhpuSqK-20" value="" style="endArrow=none;html=1;rounded=0;entryX=0;entryY=0.5;entryDx=0;entryDy=0;exitX=1;exitY=0.3333333333333333;exitDx=0;exitDy=0;exitPerimeter=0;" edge="1" parent="1" source="tdtGNlRz05rMyrhpuSqK-3" target="tdtGNlRz05rMyrhpuSqK-19">
          <mxGeometry width="50" height="50" relative="1" as="geometry">
            <mxPoint x="180" y="530" as="sourcePoint" />
            <mxPoint x="230" y="480" as="targetPoint" />
          </mxGeometry>
        </mxCell>
        <mxCell id="tdtGNlRz05rMyrhpuSqK-23" value="STUDENT" style="shape=table;startSize=30;container=1;collapsible=1;childLayout=tableLayout;fixedRows=1;rowLines=0;fontStyle=1;align=center;resizeLast=1;html=1;" vertex="1" parent="1">
          <mxGeometry x="1490" y="300" width="180" height="180" as="geometry" />
        </mxCell>
        <mxCell id="tdtGNlRz05rMyrhpuSqK-24" value="" style="shape=tableRow;horizontal=0;startSize=0;swimlaneHead=0;swimlaneBody=0;fillColor=none;collapsible=0;dropTarget=0;points=[[0,0.5],[1,0.5]];portConstraint=eastwest;top=0;left=0;right=0;bottom=1;" vertex="1" parent="tdtGNlRz05rMyrhpuSqK-23">
          <mxGeometry y="30" width="180" height="30" as="geometry" />
        </mxCell>
        <mxCell id="tdtGNlRz05rMyrhpuSqK-25" value="PK" style="shape=partialRectangle;connectable=0;fillColor=none;top=0;left=0;bottom=0;right=0;fontStyle=1;overflow=hidden;whiteSpace=wrap;html=1;" vertex="1" parent="tdtGNlRz05rMyrhpuSqK-24">
          <mxGeometry width="30" height="30" as="geometry">
            <mxRectangle width="30" height="30" as="alternateBounds" />
          </mxGeometry>
        </mxCell>
        <mxCell id="tdtGNlRz05rMyrhpuSqK-26" value="STD_ID" style="shape=partialRectangle;connectable=0;fillColor=none;top=0;left=0;bottom=0;right=0;align=left;spacingLeft=6;fontStyle=5;overflow=hidden;whiteSpace=wrap;html=1;" vertex="1" parent="tdtGNlRz05rMyrhpuSqK-24">
          <mxGeometry x="30" width="150" height="30" as="geometry">
            <mxRectangle width="150" height="30" as="alternateBounds" />
          </mxGeometry>
        </mxCell>
        <mxCell id="tdtGNlRz05rMyrhpuSqK-27" value="" style="shape=tableRow;horizontal=0;startSize=0;swimlaneHead=0;swimlaneBody=0;fillColor=none;collapsible=0;dropTarget=0;points=[[0,0.5],[1,0.5]];portConstraint=eastwest;top=0;left=0;right=0;bottom=0;" vertex="1" parent="tdtGNlRz05rMyrhpuSqK-23">
          <mxGeometry y="60" width="180" height="30" as="geometry" />
        </mxCell>
        <mxCell id="tdtGNlRz05rMyrhpuSqK-28" value="" style="shape=partialRectangle;connectable=0;fillColor=none;top=0;left=0;bottom=0;right=0;editable=1;overflow=hidden;whiteSpace=wrap;html=1;" vertex="1" parent="tdtGNlRz05rMyrhpuSqK-27">
          <mxGeometry width="30" height="30" as="geometry">
            <mxRectangle width="30" height="30" as="alternateBounds" />
          </mxGeometry>
        </mxCell>
        <mxCell id="tdtGNlRz05rMyrhpuSqK-29" value="Name" style="shape=partialRectangle;connectable=0;fillColor=none;top=0;left=0;bottom=0;right=0;align=left;spacingLeft=6;overflow=hidden;whiteSpace=wrap;html=1;" vertex="1" parent="tdtGNlRz05rMyrhpuSqK-27">
          <mxGeometry x="30" width="150" height="30" as="geometry">
            <mxRectangle width="150" height="30" as="alternateBounds" />
          </mxGeometry>
        </mxCell>
        <mxCell id="tdtGNlRz05rMyrhpuSqK-30" value="" style="shape=tableRow;horizontal=0;startSize=0;swimlaneHead=0;swimlaneBody=0;fillColor=none;collapsible=0;dropTarget=0;points=[[0,0.5],[1,0.5]];portConstraint=eastwest;top=0;left=0;right=0;bottom=0;" vertex="1" parent="tdtGNlRz05rMyrhpuSqK-23">
          <mxGeometry y="90" width="180" height="30" as="geometry" />
        </mxCell>
        <mxCell id="tdtGNlRz05rMyrhpuSqK-31" value="" style="shape=partialRectangle;connectable=0;fillColor=none;top=0;left=0;bottom=0;right=0;editable=1;overflow=hidden;whiteSpace=wrap;html=1;" vertex="1" parent="tdtGNlRz05rMyrhpuSqK-30">
          <mxGeometry width="30" height="30" as="geometry">
            <mxRectangle width="30" height="30" as="alternateBounds" />
          </mxGeometry>
        </mxCell>
        <mxCell id="tdtGNlRz05rMyrhpuSqK-32" value="Course_Name" style="shape=partialRectangle;connectable=0;fillColor=none;top=0;left=0;bottom=0;right=0;align=left;spacingLeft=6;overflow=hidden;whiteSpace=wrap;html=1;" vertex="1" parent="tdtGNlRz05rMyrhpuSqK-30">
          <mxGeometry x="30" width="150" height="30" as="geometry">
            <mxRectangle width="150" height="30" as="alternateBounds" />
          </mxGeometry>
        </mxCell>
        <mxCell id="tdtGNlRz05rMyrhpuSqK-33" value="" style="shape=tableRow;horizontal=0;startSize=0;swimlaneHead=0;swimlaneBody=0;fillColor=none;collapsible=0;dropTarget=0;points=[[0,0.5],[1,0.5]];portConstraint=eastwest;top=0;left=0;right=0;bottom=0;" vertex="1" parent="tdtGNlRz05rMyrhpuSqK-23">
          <mxGeometry y="120" width="180" height="30" as="geometry" />
        </mxCell>
        <mxCell id="tdtGNlRz05rMyrhpuSqK-34" value="" style="shape=partialRectangle;connectable=0;fillColor=none;top=0;left=0;bottom=0;right=0;editable=1;overflow=hidden;whiteSpace=wrap;html=1;" vertex="1" parent="tdtGNlRz05rMyrhpuSqK-33">
          <mxGeometry width="30" height="30" as="geometry">
            <mxRectangle width="30" height="30" as="alternateBounds" />
          </mxGeometry>
        </mxCell>
        <mxCell id="tdtGNlRz05rMyrhpuSqK-35" value="Password" style="shape=partialRectangle;connectable=0;fillColor=none;top=0;left=0;bottom=0;right=0;align=left;spacingLeft=6;overflow=hidden;whiteSpace=wrap;html=1;" vertex="1" parent="tdtGNlRz05rMyrhpuSqK-33">
          <mxGeometry x="30" width="150" height="30" as="geometry">
            <mxRectangle width="150" height="30" as="alternateBounds" />
          </mxGeometry>
        </mxCell>
        <mxCell id="tdtGNlRz05rMyrhpuSqK-62" value="" style="shape=tableRow;horizontal=0;startSize=0;swimlaneHead=0;swimlaneBody=0;fillColor=none;collapsible=0;dropTarget=0;points=[[0,0.5],[1,0.5]];portConstraint=eastwest;top=0;left=0;right=0;bottom=0;" vertex="1" parent="tdtGNlRz05rMyrhpuSqK-23">
          <mxGeometry y="150" width="180" height="30" as="geometry" />
        </mxCell>
        <mxCell id="tdtGNlRz05rMyrhpuSqK-63" value="FK" style="shape=partialRectangle;connectable=0;fillColor=none;top=0;left=0;bottom=0;right=0;editable=1;overflow=hidden;fontStyle=1" vertex="1" parent="tdtGNlRz05rMyrhpuSqK-62">
          <mxGeometry width="30" height="30" as="geometry">
            <mxRectangle width="30" height="30" as="alternateBounds" />
          </mxGeometry>
        </mxCell>
        <mxCell id="tdtGNlRz05rMyrhpuSqK-64" value="PDF_ID" style="shape=partialRectangle;connectable=0;fillColor=none;top=0;left=0;bottom=0;right=0;align=left;spacingLeft=6;overflow=hidden;" vertex="1" parent="tdtGNlRz05rMyrhpuSqK-62">
          <mxGeometry x="30" width="150" height="30" as="geometry">
            <mxRectangle width="150" height="30" as="alternateBounds" />
          </mxGeometry>
        </mxCell>
        <mxCell id="tdtGNlRz05rMyrhpuSqK-36" value="ADMIN" style="shape=table;startSize=30;container=1;collapsible=1;childLayout=tableLayout;fixedRows=1;rowLines=0;fontStyle=1;align=center;resizeLast=1;html=1;" vertex="1" parent="1">
          <mxGeometry x="1790" y="200" width="180" height="120" as="geometry" />
        </mxCell>
        <mxCell id="tdtGNlRz05rMyrhpuSqK-37" value="" style="shape=tableRow;horizontal=0;startSize=0;swimlaneHead=0;swimlaneBody=0;fillColor=none;collapsible=0;dropTarget=0;points=[[0,0.5],[1,0.5]];portConstraint=eastwest;top=0;left=0;right=0;bottom=1;" vertex="1" parent="tdtGNlRz05rMyrhpuSqK-36">
          <mxGeometry y="30" width="180" height="30" as="geometry" />
        </mxCell>
        <mxCell id="tdtGNlRz05rMyrhpuSqK-38" value="PK" style="shape=partialRectangle;connectable=0;fillColor=none;top=0;left=0;bottom=0;right=0;fontStyle=1;overflow=hidden;whiteSpace=wrap;html=1;" vertex="1" parent="tdtGNlRz05rMyrhpuSqK-37">
          <mxGeometry width="30" height="30" as="geometry">
            <mxRectangle width="30" height="30" as="alternateBounds" />
          </mxGeometry>
        </mxCell>
        <mxCell id="tdtGNlRz05rMyrhpuSqK-39" value="ADMIN_ID" style="shape=partialRectangle;connectable=0;fillColor=none;top=0;left=0;bottom=0;right=0;align=left;spacingLeft=6;fontStyle=5;overflow=hidden;whiteSpace=wrap;html=1;" vertex="1" parent="tdtGNlRz05rMyrhpuSqK-37">
          <mxGeometry x="30" width="150" height="30" as="geometry">
            <mxRectangle width="150" height="30" as="alternateBounds" />
          </mxGeometry>
        </mxCell>
        <mxCell id="tdtGNlRz05rMyrhpuSqK-40" value="" style="shape=tableRow;horizontal=0;startSize=0;swimlaneHead=0;swimlaneBody=0;fillColor=none;collapsible=0;dropTarget=0;points=[[0,0.5],[1,0.5]];portConstraint=eastwest;top=0;left=0;right=0;bottom=0;" vertex="1" parent="tdtGNlRz05rMyrhpuSqK-36">
          <mxGeometry y="60" width="180" height="30" as="geometry" />
        </mxCell>
        <mxCell id="tdtGNlRz05rMyrhpuSqK-41" value="" style="shape=partialRectangle;connectable=0;fillColor=none;top=0;left=0;bottom=0;right=0;editable=1;overflow=hidden;whiteSpace=wrap;html=1;" vertex="1" parent="tdtGNlRz05rMyrhpuSqK-40">
          <mxGeometry width="30" height="30" as="geometry">
            <mxRectangle width="30" height="30" as="alternateBounds" />
          </mxGeometry>
        </mxCell>
        <mxCell id="tdtGNlRz05rMyrhpuSqK-42" value="Name" style="shape=partialRectangle;connectable=0;fillColor=none;top=0;left=0;bottom=0;right=0;align=left;spacingLeft=6;overflow=hidden;whiteSpace=wrap;html=1;" vertex="1" parent="tdtGNlRz05rMyrhpuSqK-40">
          <mxGeometry x="30" width="150" height="30" as="geometry">
            <mxRectangle width="150" height="30" as="alternateBounds" />
          </mxGeometry>
        </mxCell>
        <mxCell id="tdtGNlRz05rMyrhpuSqK-46" value="" style="shape=tableRow;horizontal=0;startSize=0;swimlaneHead=0;swimlaneBody=0;fillColor=none;collapsible=0;dropTarget=0;points=[[0,0.5],[1,0.5]];portConstraint=eastwest;top=0;left=0;right=0;bottom=0;" vertex="1" parent="tdtGNlRz05rMyrhpuSqK-36">
          <mxGeometry y="90" width="180" height="30" as="geometry" />
        </mxCell>
        <mxCell id="tdtGNlRz05rMyrhpuSqK-47" value="" style="shape=partialRectangle;connectable=0;fillColor=none;top=0;left=0;bottom=0;right=0;editable=1;overflow=hidden;whiteSpace=wrap;html=1;" vertex="1" parent="tdtGNlRz05rMyrhpuSqK-46">
          <mxGeometry width="30" height="30" as="geometry">
            <mxRectangle width="30" height="30" as="alternateBounds" />
          </mxGeometry>
        </mxCell>
        <mxCell id="tdtGNlRz05rMyrhpuSqK-48" value="Password" style="shape=partialRectangle;connectable=0;fillColor=none;top=0;left=0;bottom=0;right=0;align=left;spacingLeft=6;overflow=hidden;whiteSpace=wrap;html=1;" vertex="1" parent="tdtGNlRz05rMyrhpuSqK-46">
          <mxGeometry x="30" width="150" height="30" as="geometry">
            <mxRectangle width="150" height="30" as="alternateBounds" />
          </mxGeometry>
        </mxCell>
        <mxCell id="tdtGNlRz05rMyrhpuSqK-65" value="" style="edgeStyle=entityRelationEdgeStyle;fontSize=12;html=1;endArrow=ERone;rounded=0;startArrow=ERmany;startFill=0;endFill=0;exitX=1.005;exitY=0.09;exitDx=0;exitDy=0;exitPerimeter=0;entryX=0.011;entryY=0.094;entryDx=0;entryDy=0;entryPerimeter=0;" edge="1" parent="1" source="tdtGNlRz05rMyrhpuSqK-23" target="tdtGNlRz05rMyrhpuSqK-36">
          <mxGeometry width="100" height="100" relative="1" as="geometry">
            <mxPoint x="1710" y="450" as="sourcePoint" />
            <mxPoint x="1800" y="360" as="targetPoint" />
          </mxGeometry>
        </mxCell>
        <mxCell id="tdtGNlRz05rMyrhpuSqK-67" value="" style="edgeStyle=entityRelationEdgeStyle;fontSize=12;html=1;endArrow=ERone;rounded=0;startArrow=ERone;startFill=0;endFill=0;entryX=0.009;entryY=0.138;entryDx=0;entryDy=0;entryPerimeter=0;exitX=1.008;exitY=0.173;exitDx=0;exitDy=0;exitPerimeter=0;" edge="1" parent="1" source="tdtGNlRz05rMyrhpuSqK-23" target="tdtGNlRz05rMyrhpuSqK-49">
          <mxGeometry width="100" height="100" relative="1" as="geometry">
            <mxPoint x="1680" y="540" as="sourcePoint" />
            <mxPoint x="1780" y="440" as="targetPoint" />
          </mxGeometry>
        </mxCell>
        <mxCell id="tdtGNlRz05rMyrhpuSqK-68" value="&lt;b&gt;ERD: Exam Result System&lt;/b&gt;" style="text;html=1;strokeColor=none;fillColor=none;align=center;verticalAlign=middle;whiteSpace=wrap;rounded=0;" vertex="1" parent="1">
          <mxGeometry x="1630" y="140" width="190" height="30" as="geometry" />
        </mxCell>
        <mxCell id="tdtGNlRz05rMyrhpuSqK-69" value="" style="swimlane;startSize=0;" vertex="1" parent="1">
          <mxGeometry x="1430" y="140" width="600" height="410" as="geometry" />
        </mxCell>
        <mxCell id="tdtGNlRz05rMyrhpuSqK-49" value="PDF" style="shape=table;startSize=30;container=1;collapsible=1;childLayout=tableLayout;fixedRows=1;rowLines=0;fontStyle=1;align=center;resizeLast=1;html=1;" vertex="1" parent="tdtGNlRz05rMyrhpuSqK-69">
          <mxGeometry x="360" y="205" width="180" height="150" as="geometry" />
        </mxCell>
        <mxCell id="tdtGNlRz05rMyrhpuSqK-50" value="" style="shape=tableRow;horizontal=0;startSize=0;swimlaneHead=0;swimlaneBody=0;fillColor=none;collapsible=0;dropTarget=0;points=[[0,0.5],[1,0.5]];portConstraint=eastwest;top=0;left=0;right=0;bottom=1;" vertex="1" parent="tdtGNlRz05rMyrhpuSqK-49">
          <mxGeometry y="30" width="180" height="30" as="geometry" />
        </mxCell>
        <mxCell id="tdtGNlRz05rMyrhpuSqK-51" value="PK" style="shape=partialRectangle;connectable=0;fillColor=none;top=0;left=0;bottom=0;right=0;fontStyle=1;overflow=hidden;whiteSpace=wrap;html=1;" vertex="1" parent="tdtGNlRz05rMyrhpuSqK-50">
          <mxGeometry width="30" height="30" as="geometry">
            <mxRectangle width="30" height="30" as="alternateBounds" />
          </mxGeometry>
        </mxCell>
        <mxCell id="tdtGNlRz05rMyrhpuSqK-52" value="PDF_ID" style="shape=partialRectangle;connectable=0;fillColor=none;top=0;left=0;bottom=0;right=0;align=left;spacingLeft=6;fontStyle=5;overflow=hidden;whiteSpace=wrap;html=1;" vertex="1" parent="tdtGNlRz05rMyrhpuSqK-50">
          <mxGeometry x="30" width="150" height="30" as="geometry">
            <mxRectangle width="150" height="30" as="alternateBounds" />
          </mxGeometry>
        </mxCell>
        <mxCell id="tdtGNlRz05rMyrhpuSqK-53" value="" style="shape=tableRow;horizontal=0;startSize=0;swimlaneHead=0;swimlaneBody=0;fillColor=none;collapsible=0;dropTarget=0;points=[[0,0.5],[1,0.5]];portConstraint=eastwest;top=0;left=0;right=0;bottom=0;" vertex="1" parent="tdtGNlRz05rMyrhpuSqK-49">
          <mxGeometry y="60" width="180" height="30" as="geometry" />
        </mxCell>
        <mxCell id="tdtGNlRz05rMyrhpuSqK-54" value="" style="shape=partialRectangle;connectable=0;fillColor=none;top=0;left=0;bottom=0;right=0;editable=1;overflow=hidden;whiteSpace=wrap;html=1;" vertex="1" parent="tdtGNlRz05rMyrhpuSqK-53">
          <mxGeometry width="30" height="30" as="geometry">
            <mxRectangle width="30" height="30" as="alternateBounds" />
          </mxGeometry>
        </mxCell>
        <mxCell id="tdtGNlRz05rMyrhpuSqK-55" value="PDF_Name" style="shape=partialRectangle;connectable=0;fillColor=none;top=0;left=0;bottom=0;right=0;align=left;spacingLeft=6;overflow=hidden;whiteSpace=wrap;html=1;" vertex="1" parent="tdtGNlRz05rMyrhpuSqK-53">
          <mxGeometry x="30" width="150" height="30" as="geometry">
            <mxRectangle width="150" height="30" as="alternateBounds" />
          </mxGeometry>
        </mxCell>
        <mxCell id="tdtGNlRz05rMyrhpuSqK-56" value="" style="shape=tableRow;horizontal=0;startSize=0;swimlaneHead=0;swimlaneBody=0;fillColor=none;collapsible=0;dropTarget=0;points=[[0,0.5],[1,0.5]];portConstraint=eastwest;top=0;left=0;right=0;bottom=0;" vertex="1" parent="tdtGNlRz05rMyrhpuSqK-49">
          <mxGeometry y="90" width="180" height="30" as="geometry" />
        </mxCell>
        <mxCell id="tdtGNlRz05rMyrhpuSqK-57" value="&lt;b&gt;FK&lt;/b&gt;" style="shape=partialRectangle;connectable=0;fillColor=none;top=0;left=0;bottom=0;right=0;editable=1;overflow=hidden;whiteSpace=wrap;html=1;" vertex="1" parent="tdtGNlRz05rMyrhpuSqK-56">
          <mxGeometry width="30" height="30" as="geometry">
            <mxRectangle width="30" height="30" as="alternateBounds" />
          </mxGeometry>
        </mxCell>
        <mxCell id="tdtGNlRz05rMyrhpuSqK-58" value="STD_ID" style="shape=partialRectangle;connectable=0;fillColor=none;top=0;left=0;bottom=0;right=0;align=left;spacingLeft=6;overflow=hidden;whiteSpace=wrap;html=1;" vertex="1" parent="tdtGNlRz05rMyrhpuSqK-56">
          <mxGeometry x="30" width="150" height="30" as="geometry">
            <mxRectangle width="150" height="30" as="alternateBounds" />
          </mxGeometry>
        </mxCell>
        <mxCell id="tdtGNlRz05rMyrhpuSqK-71" value="" style="shape=tableRow;horizontal=0;startSize=0;swimlaneHead=0;swimlaneBody=0;fillColor=none;collapsible=0;dropTarget=0;points=[[0,0.5],[1,0.5]];portConstraint=eastwest;top=0;left=0;right=0;bottom=0;" vertex="1" parent="tdtGNlRz05rMyrhpuSqK-49">
          <mxGeometry y="120" width="180" height="30" as="geometry" />
        </mxCell>
        <mxCell id="tdtGNlRz05rMyrhpuSqK-72" value="FK" style="shape=partialRectangle;connectable=0;fillColor=none;top=0;left=0;bottom=0;right=0;editable=1;overflow=hidden;fontStyle=1" vertex="1" parent="tdtGNlRz05rMyrhpuSqK-71">
          <mxGeometry width="30" height="30" as="geometry">
            <mxRectangle width="30" height="30" as="alternateBounds" />
          </mxGeometry>
        </mxCell>
        <mxCell id="tdtGNlRz05rMyrhpuSqK-73" value="ADMIN_ID" style="shape=partialRectangle;connectable=0;fillColor=none;top=0;left=0;bottom=0;right=0;align=left;spacingLeft=6;overflow=hidden;" vertex="1" parent="tdtGNlRz05rMyrhpuSqK-71">
          <mxGeometry x="30" width="150" height="30" as="geometry">
            <mxRectangle width="150" height="30" as="alternateBounds" />
          </mxGeometry>
        </mxCell>
        <mxCell id="tdtGNlRz05rMyrhpuSqK-74" value="Login" style="html=1;dashed=0;whiteSpace=wrap;shape=mxgraph.dfd.start" vertex="1" parent="1">
          <mxGeometry x="760" y="870" width="80" height="30" as="geometry" />
        </mxCell>
        <mxCell id="tdtGNlRz05rMyrhpuSqK-75" value="Click download button" style="html=1;dashed=0;whiteSpace=wrap;" vertex="1" parent="1">
          <mxGeometry x="750" y="1040" width="100" height="50" as="geometry" />
        </mxCell>
        <mxCell id="tdtGNlRz05rMyrhpuSqK-76" value="PDF Download" style="shape=parallelogram;perimeter=parallelogramPerimeter;whiteSpace=wrap;html=1;dashed=0;" vertex="1" parent="1">
          <mxGeometry x="745" y="1130" width="100" height="50" as="geometry" />
        </mxCell>
        <mxCell id="tdtGNlRz05rMyrhpuSqK-77" value="Result or Management page" style="shape=rhombus;html=1;dashed=0;whiteSpace=wrap;perimeter=rhombusPerimeter;" vertex="1" parent="1">
          <mxGeometry x="755" y="920" width="90" height="80" as="geometry" />
        </mxCell>
        <mxCell id="tdtGNlRz05rMyrhpuSqK-78" value="" style="endArrow=classic;html=1;rounded=0;exitX=0.511;exitY=1.035;exitDx=0;exitDy=0;exitPerimeter=0;entryX=0.5;entryY=0;entryDx=0;entryDy=0;" edge="1" parent="1" source="tdtGNlRz05rMyrhpuSqK-77" target="tdtGNlRz05rMyrhpuSqK-75">
          <mxGeometry width="50" height="50" relative="1" as="geometry">
            <mxPoint x="840" y="1060" as="sourcePoint" />
            <mxPoint x="890" y="1010" as="targetPoint" />
          </mxGeometry>
        </mxCell>
        <mxCell id="tdtGNlRz05rMyrhpuSqK-79" value="Result&amp;nbsp;" style="edgeLabel;html=1;align=center;verticalAlign=middle;resizable=0;points=[];" vertex="1" connectable="0" parent="tdtGNlRz05rMyrhpuSqK-78">
          <mxGeometry x="-0.0529" relative="1" as="geometry">
            <mxPoint as="offset" />
          </mxGeometry>
        </mxCell>
        <mxCell id="tdtGNlRz05rMyrhpuSqK-80" value="" style="endArrow=classic;html=1;rounded=0;exitX=1;exitY=0.5;exitDx=0;exitDy=0;entryX=0;entryY=0.5;entryDx=0;entryDy=0;" edge="1" parent="1" source="tdtGNlRz05rMyrhpuSqK-77" target="tdtGNlRz05rMyrhpuSqK-81">
          <mxGeometry width="50" height="50" relative="1" as="geometry">
            <mxPoint x="880" y="1020" as="sourcePoint" />
            <mxPoint x="930" y="970" as="targetPoint" />
          </mxGeometry>
        </mxCell>
        <mxCell id="tdtGNlRz05rMyrhpuSqK-82" value="Management" style="edgeLabel;html=1;align=center;verticalAlign=middle;resizable=0;points=[];" vertex="1" connectable="0" parent="tdtGNlRz05rMyrhpuSqK-80">
          <mxGeometry x="-0.2703" relative="1" as="geometry">
            <mxPoint as="offset" />
          </mxGeometry>
        </mxCell>
        <mxCell id="tdtGNlRz05rMyrhpuSqK-81" value="Click User management" style="html=1;dashed=0;whiteSpace=wrap;" vertex="1" parent="1">
          <mxGeometry x="960" y="935" width="100" height="50" as="geometry" />
        </mxCell>
        <mxCell id="tdtGNlRz05rMyrhpuSqK-83" value="Change password" style="shape=parallelogram;perimeter=parallelogramPerimeter;whiteSpace=wrap;html=1;dashed=0;" vertex="1" parent="1">
          <mxGeometry x="950" y="1030" width="120" height="70" as="geometry" />
        </mxCell>
        <mxCell id="tdtGNlRz05rMyrhpuSqK-84" value="" style="endArrow=classic;html=1;rounded=0;exitX=0.5;exitY=1;exitDx=0;exitDy=0;entryX=0.5;entryY=0;entryDx=0;entryDy=0;" edge="1" parent="1" source="tdtGNlRz05rMyrhpuSqK-81" target="tdtGNlRz05rMyrhpuSqK-83">
          <mxGeometry width="50" height="50" relative="1" as="geometry">
            <mxPoint x="910" y="1070" as="sourcePoint" />
            <mxPoint x="960" y="1020" as="targetPoint" />
          </mxGeometry>
        </mxCell>
        <mxCell id="tdtGNlRz05rMyrhpuSqK-85" value="" style="endArrow=classic;html=1;rounded=0;entryX=0.5;entryY=0;entryDx=0;entryDy=0;exitX=0.487;exitY=1.111;exitDx=0;exitDy=0;exitPerimeter=0;" edge="1" parent="1" source="tdtGNlRz05rMyrhpuSqK-75" target="tdtGNlRz05rMyrhpuSqK-76">
          <mxGeometry width="50" height="50" relative="1" as="geometry">
            <mxPoint x="640" y="1170" as="sourcePoint" />
            <mxPoint x="690" y="1120" as="targetPoint" />
          </mxGeometry>
        </mxCell>
        <mxCell id="tdtGNlRz05rMyrhpuSqK-88" value="" style="swimlane;startSize=0;" vertex="1" parent="1">
          <mxGeometry x="680" y="860" width="470" height="440" as="geometry" />
        </mxCell>
        <mxCell id="tdtGNlRz05rMyrhpuSqK-89" value="Logout" style="html=1;dashed=0;whiteSpace=wrap;shape=mxgraph.dfd.start" vertex="1" parent="tdtGNlRz05rMyrhpuSqK-88">
          <mxGeometry x="75" y="360" width="80" height="30" as="geometry" />
        </mxCell>
        <mxCell id="tdtGNlRz05rMyrhpuSqK-93" value="USER Workflow" style="text;html=1;strokeColor=none;fillColor=none;align=center;verticalAlign=middle;whiteSpace=wrap;rounded=0;" vertex="1" parent="tdtGNlRz05rMyrhpuSqK-88">
          <mxGeometry x="220" y="10" width="150" height="30" as="geometry" />
        </mxCell>
        <mxCell id="tdtGNlRz05rMyrhpuSqK-90" value="" style="endArrow=classic;html=1;rounded=0;exitX=0.5;exitY=1;exitDx=0;exitDy=0;entryX=0.5;entryY=0.5;entryDx=0;entryDy=-15;entryPerimeter=0;" edge="1" parent="1" source="tdtGNlRz05rMyrhpuSqK-76" target="tdtGNlRz05rMyrhpuSqK-89">
          <mxGeometry width="50" height="50" relative="1" as="geometry">
            <mxPoint x="890" y="1250" as="sourcePoint" />
            <mxPoint x="940" y="1200" as="targetPoint" />
          </mxGeometry>
        </mxCell>
        <mxCell id="tdtGNlRz05rMyrhpuSqK-91" value="" style="endArrow=classic;html=1;rounded=0;exitX=0.5;exitY=1;exitDx=0;exitDy=0;entryX=1;entryY=0.5;entryDx=0;entryDy=0;entryPerimeter=0;" edge="1" parent="1" source="tdtGNlRz05rMyrhpuSqK-83" target="tdtGNlRz05rMyrhpuSqK-89">
          <mxGeometry width="50" height="50" relative="1" as="geometry">
            <mxPoint x="940" y="1210" as="sourcePoint" />
            <mxPoint x="990" y="1160" as="targetPoint" />
            <Array as="points">
              <mxPoint x="1010" y="1235" />
            </Array>
          </mxGeometry>
        </mxCell>
        <mxCell id="tdtGNlRz05rMyrhpuSqK-92" value="" style="endArrow=classic;html=1;rounded=0;entryX=0.5;entryY=0;entryDx=0;entryDy=0;exitX=0.5;exitY=0.5;exitDx=0;exitDy=15;exitPerimeter=0;" edge="1" parent="1" source="tdtGNlRz05rMyrhpuSqK-74" target="tdtGNlRz05rMyrhpuSqK-77">
          <mxGeometry width="50" height="50" relative="1" as="geometry">
            <mxPoint x="570" y="950" as="sourcePoint" />
            <mxPoint x="620" y="900" as="targetPoint" />
          </mxGeometry>
        </mxCell>
        <mxCell id="tdtGNlRz05rMyrhpuSqK-124" value="" style="swimlane;startSize=0;movable=1;resizable=1;rotatable=1;deletable=1;editable=1;locked=0;connectable=1;" vertex="1" parent="1">
          <mxGeometry x="1290" y="860" width="300" height="440" as="geometry" />
        </mxCell>
        <mxCell id="tdtGNlRz05rMyrhpuSqK-126" value="ADMIN Workflow" style="text;html=1;strokeColor=none;fillColor=none;align=center;verticalAlign=middle;whiteSpace=wrap;rounded=0;" vertex="1" parent="tdtGNlRz05rMyrhpuSqK-124">
          <mxGeometry x="75" y="10" width="150" height="30" as="geometry" />
        </mxCell>
        <mxCell id="tdtGNlRz05rMyrhpuSqK-134" style="edgeStyle=orthogonalEdgeStyle;rounded=0;orthogonalLoop=1;jettySize=auto;html=1;entryX=0.5;entryY=0;entryDx=0;entryDy=0;" edge="1" parent="tdtGNlRz05rMyrhpuSqK-124" source="tdtGNlRz05rMyrhpuSqK-113" target="tdtGNlRz05rMyrhpuSqK-114">
          <mxGeometry relative="1" as="geometry" />
        </mxCell>
        <mxCell id="tdtGNlRz05rMyrhpuSqK-113" value="Search Student" style="html=1;dashed=0;whiteSpace=wrap;" vertex="1" parent="tdtGNlRz05rMyrhpuSqK-124">
          <mxGeometry x="90" y="110" width="100" height="50" as="geometry" />
        </mxCell>
        <mxCell id="tdtGNlRz05rMyrhpuSqK-133" style="edgeStyle=orthogonalEdgeStyle;rounded=0;orthogonalLoop=1;jettySize=auto;html=1;entryX=0.5;entryY=0;entryDx=0;entryDy=0;" edge="1" parent="tdtGNlRz05rMyrhpuSqK-124" source="tdtGNlRz05rMyrhpuSqK-112" target="tdtGNlRz05rMyrhpuSqK-113">
          <mxGeometry relative="1" as="geometry" />
        </mxCell>
        <mxCell id="tdtGNlRz05rMyrhpuSqK-112" value="Login" style="html=1;dashed=0;whiteSpace=wrap;shape=mxgraph.dfd.start" vertex="1" parent="tdtGNlRz05rMyrhpuSqK-124">
          <mxGeometry x="100" y="50" width="80" height="30" as="geometry" />
        </mxCell>
        <mxCell id="tdtGNlRz05rMyrhpuSqK-135" style="edgeStyle=orthogonalEdgeStyle;rounded=0;orthogonalLoop=1;jettySize=auto;html=1;" edge="1" parent="tdtGNlRz05rMyrhpuSqK-124" source="tdtGNlRz05rMyrhpuSqK-114" target="tdtGNlRz05rMyrhpuSqK-130">
          <mxGeometry relative="1" as="geometry" />
        </mxCell>
        <mxCell id="tdtGNlRz05rMyrhpuSqK-114" value="Student Details" style="shape=parallelogram;perimeter=parallelogramPerimeter;whiteSpace=wrap;html=1;dashed=0;" vertex="1" parent="tdtGNlRz05rMyrhpuSqK-124">
          <mxGeometry x="90" y="195" width="100" height="50" as="geometry" />
        </mxCell>
        <mxCell id="tdtGNlRz05rMyrhpuSqK-136" style="edgeStyle=orthogonalEdgeStyle;rounded=0;orthogonalLoop=1;jettySize=auto;html=1;entryX=0.5;entryY=0.5;entryDx=0;entryDy=-15;entryPerimeter=0;" edge="1" parent="tdtGNlRz05rMyrhpuSqK-124" source="tdtGNlRz05rMyrhpuSqK-130" target="tdtGNlRz05rMyrhpuSqK-131">
          <mxGeometry relative="1" as="geometry" />
        </mxCell>
        <mxCell id="tdtGNlRz05rMyrhpuSqK-130" value="PDF Upload" style="html=1;dashed=0;whiteSpace=wrap;" vertex="1" parent="tdtGNlRz05rMyrhpuSqK-124">
          <mxGeometry x="90" y="280" width="100" height="50" as="geometry" />
        </mxCell>
        <mxCell id="tdtGNlRz05rMyrhpuSqK-131" value="Logout" style="html=1;dashed=0;whiteSpace=wrap;shape=mxgraph.dfd.start" vertex="1" parent="tdtGNlRz05rMyrhpuSqK-124">
          <mxGeometry x="100" y="360" width="80" height="30" as="geometry" />
        </mxCell>
      </root>
    </mxGraphModel>
  </diagram>
</mxfile>
